<svg width="94" height="36" viewBox="0 0 94 36" fill="none" xmlns="http://www.w3.org/2000/svg">
<path d="M40.1285 6.06311H39.7098V29.901H40.1285V6.06311Z" fill="#929497"/>
<path d="M72.2073 6.06311H67.6742V29.9369H72.2073V6.06311Z" fill="#6D6E70"/>
<path d="M49.4938 29.9369H54.0269V20.5716H62.5789V16.4929H54.0269V10.1776H63.6793V6.08704H49.4938V29.9369Z" fill="#6D6E70"/>
<path d="M91.0097 17.2943C92.2895 16.8996 93.6411 15.9427 93.6411 13.5506V11.4096C93.6411 8.45527 91.249 6.06311 88.2946 6.06311H77.1472V29.9369H88.6654C91.6197 29.9369 93.9999 27.5447 93.9999 24.6024V21.3729C93.9999 18.7894 92.4091 17.6771 90.9978 17.3063L91.0097 17.2943ZM81.6803 10.1417H87.7684C88.5099 10.1417 89.108 10.7398 89.108 11.4814V14.1606C89.108 14.9021 88.5099 15.5002 87.7684 15.5002H81.6803V10.1537V10.1417ZM89.4907 24.5186C89.4907 25.2602 88.8927 25.8582 88.1511 25.8582H81.6803V19.5908H88.1511C88.8927 19.5908 89.4907 20.1888 89.4907 20.9304V24.5306V24.5186Z" fill="#6D6E70"/>
<path d="M24.9861 18.0001C21.4098 15.1534 12.9775 8.6467 7.72668 4.60395H16.4581C16.6614 4.60395 16.8647 4.61591 17.0681 4.63983C17.1279 4.63983 17.1996 4.66375 17.2594 4.66375C17.391 4.68767 17.5226 4.69963 17.6542 4.73551C17.7259 4.74747 17.7977 4.7714 17.8694 4.79532C17.9891 4.8312 18.1087 4.85512 18.2163 4.90297C18.2881 4.92689 18.3598 4.95081 18.4436 4.98669C18.5512 5.03453 18.6589 5.07042 18.7665 5.11826C18.8383 5.15414 18.91 5.19002 18.9818 5.22591C19.0894 5.27375 19.1851 5.33355 19.2928 5.39336C19.3526 5.42924 19.4244 5.46512 19.4842 5.51297C19.5918 5.58473 19.6875 5.6565 19.7832 5.72826C19.831 5.76414 19.8908 5.81199 19.9387 5.84787C20.0583 5.94356 20.1779 6.0512 20.2975 6.15885C20.3214 6.18277 20.3453 6.20669 20.3693 6.23062C20.5008 6.36218 20.6324 6.50571 20.752 6.6612C21.5295 7.61807 22.0079 8.83807 22.0079 10.1777C22.0079 11.0747 21.7926 11.924 21.4098 12.6775C22.8451 13.7898 24.1369 14.8065 25.1895 15.6318C26.2061 14.053 26.7922 12.1871 26.7922 10.1777C26.7922 7.97689 26.0865 5.95552 24.8904 4.29296C24.7589 4.11355 24.6273 3.93414 24.4957 3.76669C24.4718 3.73081 24.4479 3.70688 24.424 3.671C24.2565 3.46767 24.0771 3.26433 23.8857 3.08492C23.8618 3.061 23.8259 3.02512 23.802 2.98924C23.5987 2.7859 23.3953 2.60649 23.18 2.41512C23.1322 2.37924 23.0844 2.34335 23.0485 2.30747C22.8212 2.12806 22.6059 1.96061 22.3667 1.79316C22.3428 1.78119 22.3189 1.75727 22.2949 1.74531C22.0677 1.58982 21.8404 1.45825 21.6012 1.32668C21.5534 1.30276 21.5175 1.27884 21.4697 1.25492C21.2185 1.12335 20.9673 1.00374 20.7042 0.884134C20.6444 0.860212 20.5965 0.83629 20.5367 0.812369C20.2616 0.704722 19.9985 0.597074 19.7114 0.513349C19.6995 0.513349 19.6755 0.513349 19.6636 0.501388C19.3885 0.417662 19.1134 0.345897 18.8383 0.286093C18.7904 0.286093 18.7306 0.262172 18.6828 0.250211C18.3957 0.190407 18.1087 0.154524 17.8096 0.118642C17.7498 0.118642 17.69 0.118642 17.6302 0.106681C17.3193 0.0827595 17.0083 0.0588379 16.6973 0.0588379H0V4.60395C0 4.60395 16.3145 17.2346 21.7447 21.4328C23.0604 22.4495 23.9216 24.0403 23.9216 25.8344C23.9216 28.9083 21.4338 31.3962 18.3598 31.3962H4.78432V20.2726H16.3145C14.5563 18.9091 12.511 17.3302 10.4418 15.7275H0V35.9413H18.5991C24.1848 35.9413 28.7059 31.4201 28.7059 25.8344C28.7059 22.6767 27.2706 19.8301 24.9861 18.0001Z" fill="#00A69C"/>
</svg>
