<?xml version="1.0" encoding="UTF-8"?><svg id="Vectors" xmlns="http://www.w3.org/2000/svg" viewBox="0 0 1500 300"><defs><style>.cls-1{fill:#ab48ff;stroke-width:0px;}</style></defs><path class="cls-1" d="m717.2,289.49c-103.48,0-187.67-84.19-187.67-187.67V30.66h117.83v71.16c0,38.51,31.33,69.84,69.84,69.84s69.84-31.33,69.84-69.84V30.66h117.83v71.16c0,103.48-84.19,187.67-187.67,187.67Z"/><path class="cls-1" d="m1142.29,289.49c-103.48,0-187.67-84.19-187.67-187.67V30.66h117.83v71.16c0,38.51,31.33,69.84,69.84,69.84s69.84-31.33,69.84-69.84V30.66h117.83v71.16c0,103.48-84.19,187.67-187.68,187.67Z"/><path class="cls-1" d="m481.73,286.65H30.32v-68.26s136.37-37.22,212.39-93.61c-105.49,17.11-211.56-27.16-217.56-29.91L57.52,20.96c130.91,36.19,262.41,32.35,394.5-10.45l34.41,65.9s-123.98,96.15-207.58,128.17l202.87-4.8v86.87Z"/><path class="cls-1" d="m1474.85,64.84c0,27.8-20.98,48.51-48.52,48.51s-48.77-20.72-48.77-48.51,20.98-48.78,48.77-48.78,48.52,20.98,48.52,48.78Zm-14.16,0c0-20.19-14.95-35.4-34.36-35.4s-34.61,15.21-34.61,35.4,14.68,34.88,34.61,34.88,34.36-14.95,34.36-34.88Zm-22.55,5.24l9.7,17.05h-14.69l-7.34-14.95h-2.89v14.95h-12.85v-48.51h19.41c9.7,0,17.05,7.34,17.05,16.78,0,6.56-3.41,11.8-8.39,14.69Zm-15.21-9.44h5.51c2.89,0,5.25-2.1,5.25-5.24,0-2.88-2.36-4.98-5.25-4.98h-5.51v10.23Z"/></svg>